<?xml version="1.0" encoding="UTF-8" standalone="no"?>
<!DOCTYPE svg PUBLIC "-//W3C//DTD SVG 1.1//EN"
 "http://www.w3.org/Graphics/SVG/1.1/DTD/svg11.dtd">
<!-- Generated by graphviz version 6.0.1 (20220911.1526)
 -->
<!-- Pages: 1 -->
<svg width="1886pt" height="476pt"
 viewBox="0.00 0.00 1886.00 476.00" xmlns="http://www.w3.org/2000/svg" xmlns:xlink="http://www.w3.org/1999/xlink">
<g id="graph0" class="graph" transform="scale(1 1) rotate(0) translate(4 472)">
<polygon fill="white" stroke="none" points="-4,4 -4,-472 1882,-472 1882,4 -4,4"/>
<!-- [root] aws_eip.one (expand) -->
<g id="node1" class="node">
<title>[root] aws_eip.one (expand)</title>
<polygon fill="none" stroke="black" points="1209,-324 1123,-324 1123,-288 1209,-288 1209,-324"/>
<text text-anchor="middle" x="1166" y="-302.3" font-family="Times New Roman,serif" font-size="14.00">aws_eip.one</text>
</g>
<!-- [root] aws_internet_gateway.test&#45;gw (expand) -->
<g id="node3" class="node">
<title>[root] aws_internet_gateway.test&#45;gw (expand)</title>
<polygon fill="none" stroke="black" points="1389.5,-180 1206.5,-180 1206.5,-144 1389.5,-144 1389.5,-180"/>
<text text-anchor="middle" x="1298" y="-158.3" font-family="Times New Roman,serif" font-size="14.00">aws_internet_gateway.test&#45;gw</text>
</g>
<!-- [root] aws_eip.one (expand)&#45;&gt;[root] aws_internet_gateway.test&#45;gw (expand) -->
<g id="edge1" class="edge">
<title>[root] aws_eip.one (expand)&#45;&gt;[root] aws_internet_gateway.test&#45;gw (expand)</title>
<path fill="none" stroke="black" d="M1195,-287.85C1209.53,-278.41 1226.78,-265.81 1240,-252 1258.11,-233.08 1273.97,-207.76 1284.51,-188.97"/>
<polygon fill="black" stroke="black" points="1287.65,-190.52 1289.38,-180.06 1281.51,-187.16 1287.65,-190.52"/>
</g>
<!-- [root] aws_network_interface.test&#45;ni (expand) -->
<g id="node4" class="node">
<title>[root] aws_network_interface.test&#45;ni (expand)</title>
<polygon fill="none" stroke="black" points="1231.5,-252 1048.5,-252 1048.5,-216 1231.5,-216 1231.5,-252"/>
<text text-anchor="middle" x="1140" y="-230.3" font-family="Times New Roman,serif" font-size="14.00">aws_network_interface.test&#45;ni</text>
</g>
<!-- [root] aws_eip.one (expand)&#45;&gt;[root] aws_network_interface.test&#45;ni (expand) -->
<g id="edge2" class="edge">
<title>[root] aws_eip.one (expand)&#45;&gt;[root] aws_network_interface.test&#45;ni (expand)</title>
<path fill="none" stroke="black" d="M1159.57,-287.7C1156.64,-279.81 1153.11,-270.3 1149.86,-261.55"/>
<polygon fill="black" stroke="black" points="1153.12,-260.26 1146.35,-252.1 1146.55,-262.7 1153.12,-260.26"/>
</g>
<!-- [root] aws_eip.two (expand) -->
<g id="node2" class="node">
<title>[root] aws_eip.two (expand)</title>
<polygon fill="none" stroke="black" points="1314.5,-324 1227.5,-324 1227.5,-288 1314.5,-288 1314.5,-324"/>
<text text-anchor="middle" x="1271" y="-302.3" font-family="Times New Roman,serif" font-size="14.00">aws_eip.two</text>
</g>
<!-- [root] aws_eip.two (expand)&#45;&gt;[root] aws_internet_gateway.test&#45;gw (expand) -->
<g id="edge3" class="edge">
<title>[root] aws_eip.two (expand)&#45;&gt;[root] aws_internet_gateway.test&#45;gw (expand)</title>
<path fill="none" stroke="black" d="M1274.26,-287.87C1278.86,-263.67 1287.31,-219.21 1292.79,-190.39"/>
<polygon fill="black" stroke="black" points="1296.3,-190.67 1294.73,-180.19 1289.43,-189.36 1296.3,-190.67"/>
</g>
<!-- [root] aws_eip.two (expand)&#45;&gt;[root] aws_network_interface.test&#45;ni (expand) -->
<g id="edge4" class="edge">
<title>[root] aws_eip.two (expand)&#45;&gt;[root] aws_network_interface.test&#45;ni (expand)</title>
<path fill="none" stroke="black" d="M1238.95,-287.88C1221.51,-278.55 1199.73,-266.92 1181.06,-256.94"/>
<polygon fill="black" stroke="black" points="1182.64,-253.82 1172.17,-252.19 1179.34,-259.99 1182.64,-253.82"/>
</g>
<!-- [root] aws_vpc.test&#45;vpc (expand) -->
<g id="node9" class="node">
<title>[root] aws_vpc.test&#45;vpc (expand)</title>
<polygon fill="none" stroke="black" points="1596,-108 1480,-108 1480,-72 1596,-72 1596,-108"/>
<text text-anchor="middle" x="1538" y="-86.3" font-family="Times New Roman,serif" font-size="14.00">aws_vpc.test&#45;vpc</text>
</g>
<!-- [root] aws_internet_gateway.test&#45;gw (expand)&#45;&gt;[root] aws_vpc.test&#45;vpc (expand) -->
<g id="edge5" class="edge">
<title>[root] aws_internet_gateway.test&#45;gw (expand)&#45;&gt;[root] aws_vpc.test&#45;vpc (expand)</title>
<path fill="none" stroke="black" d="M1356.4,-143.97C1390.65,-133.98 1434.07,-121.31 1469.87,-110.87"/>
<polygon fill="black" stroke="black" points="1471.13,-114.15 1479.75,-107.99 1469.17,-107.43 1471.13,-114.15"/>
</g>
<!-- [root] aws_security_group.test&#45;allow&#45;web (expand) -->
<g id="node7" class="node">
<title>[root] aws_security_group.test&#45;allow&#45;web (expand)</title>
<polygon fill="none" stroke="black" points="1115.5,-180 900.5,-180 900.5,-144 1115.5,-144 1115.5,-180"/>
<text text-anchor="middle" x="1008" y="-158.3" font-family="Times New Roman,serif" font-size="14.00">aws_security_group.test&#45;allow&#45;web</text>
</g>
<!-- [root] aws_network_interface.test&#45;ni (expand)&#45;&gt;[root] aws_security_group.test&#45;allow&#45;web (expand) -->
<g id="edge6" class="edge">
<title>[root] aws_network_interface.test&#45;ni (expand)&#45;&gt;[root] aws_security_group.test&#45;allow&#45;web (expand)</title>
<path fill="none" stroke="black" d="M1107.71,-215.88C1090.13,-206.55 1068.19,-194.92 1049.37,-184.94"/>
<polygon fill="black" stroke="black" points="1050.89,-181.78 1040.41,-180.19 1047.61,-187.97 1050.89,-181.78"/>
</g>
<!-- [root] aws_subnet.test&#45;subnets (expand) -->
<g id="node8" class="node">
<title>[root] aws_subnet.test&#45;subnets (expand)</title>
<polygon fill="none" stroke="black" points="1614.5,-180 1461.5,-180 1461.5,-144 1614.5,-144 1614.5,-180"/>
<text text-anchor="middle" x="1538" y="-158.3" font-family="Times New Roman,serif" font-size="14.00">aws_subnet.test&#45;subnets</text>
</g>
<!-- [root] aws_network_interface.test&#45;ni (expand)&#45;&gt;[root] aws_subnet.test&#45;subnets (expand) -->
<g id="edge7" class="edge">
<title>[root] aws_network_interface.test&#45;ni (expand)&#45;&gt;[root] aws_subnet.test&#45;subnets (expand)</title>
<path fill="none" stroke="black" d="M1231.81,-216.85C1297.84,-205.24 1386.3,-189.68 1451.16,-178.27"/>
<polygon fill="black" stroke="black" points="1452.12,-181.66 1461.36,-176.48 1450.91,-174.76 1452.12,-181.66"/>
</g>
<!-- [root] var.ni_private_ips -->
<g id="node15" class="node">
<title>[root] var.ni_private_ips</title>
<polygon fill="none" stroke="black" points="876,-180 766,-180 766,-144 882,-144 882,-174 876,-180"/>
<polyline fill="none" stroke="black" points="876,-180 876,-174"/>
<polyline fill="none" stroke="black" points="882,-174 876,-174"/>
<text text-anchor="middle" x="824" y="-158.3" font-family="Times New Roman,serif" font-size="14.00">var.ni_private_ips</text>
</g>
<!-- [root] aws_network_interface.test&#45;ni (expand)&#45;&gt;[root] var.ni_private_ips -->
<g id="edge8" class="edge">
<title>[root] aws_network_interface.test&#45;ni (expand)&#45;&gt;[root] var.ni_private_ips</title>
<path fill="none" stroke="black" d="M1055.97,-215.96C1010.17,-206.47 952.26,-194.15 892.13,-180.22"/>
<polygon fill="black" stroke="black" points="892.6,-176.74 882.07,-177.88 891.02,-183.56 892.6,-176.74"/>
</g>
<!-- [root] aws_route_table.test&#45;rt (expand) -->
<g id="node5" class="node">
<title>[root] aws_route_table.test&#45;rt (expand)</title>
<polygon fill="none" stroke="black" points="1490,-252 1346,-252 1346,-216 1490,-216 1490,-252"/>
<text text-anchor="middle" x="1418" y="-230.3" font-family="Times New Roman,serif" font-size="14.00">aws_route_table.test&#45;rt</text>
</g>
<!-- [root] aws_route_table.test&#45;rt (expand)&#45;&gt;[root] aws_internet_gateway.test&#45;gw (expand) -->
<g id="edge9" class="edge">
<title>[root] aws_route_table.test&#45;rt (expand)&#45;&gt;[root] aws_internet_gateway.test&#45;gw (expand)</title>
<path fill="none" stroke="black" d="M1388.64,-215.88C1372.95,-206.72 1353.44,-195.34 1336.55,-185.48"/>
<polygon fill="black" stroke="black" points="1337.87,-182.21 1327.47,-180.19 1334.34,-188.25 1337.87,-182.21"/>
</g>
<!-- [root] var.public_cidr -->
<g id="node16" class="node">
<title>[root] var.public_cidr</title>
<polygon fill="none" stroke="black" points="1455.5,-108 1360.5,-108 1360.5,-72 1461.5,-72 1461.5,-102 1455.5,-108"/>
<polyline fill="none" stroke="black" points="1455.5,-108 1455.5,-102"/>
<polyline fill="none" stroke="black" points="1461.5,-102 1455.5,-102"/>
<text text-anchor="middle" x="1411" y="-86.3" font-family="Times New Roman,serif" font-size="14.00">var.public_cidr</text>
</g>
<!-- [root] aws_route_table.test&#45;rt (expand)&#45;&gt;[root] var.public_cidr -->
<g id="edge10" class="edge">
<title>[root] aws_route_table.test&#45;rt (expand)&#45;&gt;[root] var.public_cidr</title>
<path fill="none" stroke="black" d="M1417.16,-215.87C1415.96,-191.67 1413.77,-147.21 1412.35,-118.39"/>
<polygon fill="black" stroke="black" points="1415.84,-118 1411.85,-108.19 1408.84,-118.35 1415.84,-118"/>
</g>
<!-- [root] aws_route_table_association.test&#45;rt&#45;association (expand) -->
<g id="node6" class="node">
<title>[root] aws_route_table_association.test&#45;rt&#45;association (expand)</title>
<polygon fill="none" stroke="black" points="1613.5,-324 1332.5,-324 1332.5,-288 1613.5,-288 1613.5,-324"/>
<text text-anchor="middle" x="1473" y="-302.3" font-family="Times New Roman,serif" font-size="14.00">aws_route_table_association.test&#45;rt&#45;association</text>
</g>
<!-- [root] aws_route_table_association.test&#45;rt&#45;association (expand)&#45;&gt;[root] aws_route_table.test&#45;rt (expand) -->
<g id="edge11" class="edge">
<title>[root] aws_route_table_association.test&#45;rt&#45;association (expand)&#45;&gt;[root] aws_route_table.test&#45;rt (expand)</title>
<path fill="none" stroke="black" d="M1459.4,-287.7C1452.88,-279.39 1444.93,-269.28 1437.75,-260.14"/>
<polygon fill="black" stroke="black" points="1440.37,-257.81 1431.44,-252.1 1434.87,-262.13 1440.37,-257.81"/>
</g>
<!-- [root] aws_route_table_association.test&#45;rt&#45;association (expand)&#45;&gt;[root] aws_subnet.test&#45;subnets (expand) -->
<g id="edge12" class="edge">
<title>[root] aws_route_table_association.test&#45;rt&#45;association (expand)&#45;&gt;[root] aws_subnet.test&#45;subnets (expand)</title>
<path fill="none" stroke="black" d="M1481.62,-287.9C1486.77,-277.56 1493.39,-264.09 1499,-252 1508.62,-231.28 1518.97,-207.57 1526.6,-189.84"/>
<polygon fill="black" stroke="black" points="1530.02,-190.73 1530.74,-180.16 1523.59,-187.98 1530.02,-190.73"/>
</g>
<!-- [root] aws_security_group.test&#45;allow&#45;web (expand)&#45;&gt;[root] aws_vpc.test&#45;vpc (expand) -->
<g id="edge13" class="edge">
<title>[root] aws_security_group.test&#45;allow&#45;web (expand)&#45;&gt;[root] aws_vpc.test&#45;vpc (expand)</title>
<path fill="none" stroke="black" d="M1115.73,-150.36C1225.73,-139.21 1390.22,-121.66 1469.49,-108.1"/>
<polygon fill="black" stroke="black" points="1470.4,-111.49 1479.64,-106.3 1469.18,-104.6 1470.4,-111.49"/>
</g>
<!-- [root] var.http_ingress_from_port -->
<g id="node12" class="node">
<title>[root] var.http_ingress_from_port</title>
<polygon fill="none" stroke="black" points="837.5,-108 672.5,-108 672.5,-72 843.5,-72 843.5,-102 837.5,-108"/>
<polyline fill="none" stroke="black" points="837.5,-108 837.5,-102"/>
<polyline fill="none" stroke="black" points="843.5,-102 837.5,-102"/>
<text text-anchor="middle" x="758" y="-86.3" font-family="Times New Roman,serif" font-size="14.00">var.http_ingress_from_port</text>
</g>
<!-- [root] aws_security_group.test&#45;allow&#45;web (expand)&#45;&gt;[root] var.http_ingress_from_port -->
<g id="edge14" class="edge">
<title>[root] aws_security_group.test&#45;allow&#45;web (expand)&#45;&gt;[root] var.http_ingress_from_port</title>
<path fill="none" stroke="black" d="M947.16,-143.97C911.47,-133.97 866.21,-121.3 828.91,-110.85"/>
<polygon fill="black" stroke="black" points="829.68,-107.44 819.11,-108.11 827.8,-114.18 829.68,-107.44"/>
</g>
<!-- [root] var.http_ingress_protocol -->
<g id="node13" class="node">
<title>[root] var.http_ingress_protocol</title>
<polygon fill="none" stroke="black" points="1016.5,-108 861.5,-108 861.5,-72 1022.5,-72 1022.5,-102 1016.5,-108"/>
<polyline fill="none" stroke="black" points="1016.5,-108 1016.5,-102"/>
<polyline fill="none" stroke="black" points="1022.5,-102 1016.5,-102"/>
<text text-anchor="middle" x="942" y="-86.3" font-family="Times New Roman,serif" font-size="14.00">var.http_ingress_protocol</text>
</g>
<!-- [root] aws_security_group.test&#45;allow&#45;web (expand)&#45;&gt;[root] var.http_ingress_protocol -->
<g id="edge15" class="edge">
<title>[root] aws_security_group.test&#45;allow&#45;web (expand)&#45;&gt;[root] var.http_ingress_protocol</title>
<path fill="none" stroke="black" d="M991.69,-143.7C983.69,-135.22 973.93,-124.86 965.18,-115.58"/>
<polygon fill="black" stroke="black" points="967.53,-112.98 958.13,-108.1 962.44,-117.78 967.53,-112.98"/>
</g>
<!-- [root] var.http_ingress_to_port -->
<g id="node14" class="node">
<title>[root] var.http_ingress_to_port</title>
<polygon fill="none" stroke="black" points="1189.5,-108 1040.5,-108 1040.5,-72 1195.5,-72 1195.5,-102 1189.5,-108"/>
<polyline fill="none" stroke="black" points="1189.5,-108 1189.5,-102"/>
<polyline fill="none" stroke="black" points="1195.5,-102 1189.5,-102"/>
<text text-anchor="middle" x="1118" y="-86.3" font-family="Times New Roman,serif" font-size="14.00">var.http_ingress_to_port</text>
</g>
<!-- [root] aws_security_group.test&#45;allow&#45;web (expand)&#45;&gt;[root] var.http_ingress_to_port -->
<g id="edge16" class="edge">
<title>[root] aws_security_group.test&#45;allow&#45;web (expand)&#45;&gt;[root] var.http_ingress_to_port</title>
<path fill="none" stroke="black" d="M1034.91,-143.88C1049.16,-134.81 1066.85,-123.55 1082.24,-113.76"/>
<polygon fill="black" stroke="black" points="1084.43,-116.51 1090.99,-108.19 1080.67,-110.61 1084.43,-116.51"/>
</g>
<!-- [root] aws_security_group.test&#45;allow&#45;web (expand)&#45;&gt;[root] var.public_cidr -->
<g id="edge17" class="edge">
<title>[root] aws_security_group.test&#45;allow&#45;web (expand)&#45;&gt;[root] var.public_cidr</title>
<path fill="none" stroke="black" d="M1115.61,-147.82C1180.93,-139.01 1266.07,-126.07 1350.36,-107.99"/>
<polygon fill="black" stroke="black" points="1351.34,-111.36 1360.37,-105.82 1349.86,-104.52 1351.34,-111.36"/>
</g>
<!-- [root] var.public_protocol -->
<g id="node18" class="node">
<title>[root] var.public_protocol</title>
<polygon fill="none" stroke="black" points="1336,-108 1214,-108 1214,-72 1342,-72 1342,-102 1336,-108"/>
<polyline fill="none" stroke="black" points="1336,-108 1336,-102"/>
<polyline fill="none" stroke="black" points="1342,-102 1336,-102"/>
<text text-anchor="middle" x="1278" y="-86.3" font-family="Times New Roman,serif" font-size="14.00">var.public_protocol</text>
</g>
<!-- [root] aws_security_group.test&#45;allow&#45;web (expand)&#45;&gt;[root] var.public_protocol -->
<g id="edge18" class="edge">
<title>[root] aws_security_group.test&#45;allow&#45;web (expand)&#45;&gt;[root] var.public_protocol</title>
<path fill="none" stroke="black" d="M1073.7,-143.97C1113.07,-133.76 1163.23,-120.76 1203.99,-110.19"/>
<polygon fill="black" stroke="black" points="1205.07,-113.52 1213.87,-107.63 1203.31,-106.75 1205.07,-113.52"/>
</g>
<!-- [root] var.public_to_port -->
<g id="node19" class="node">
<title>[root] var.public_to_port</title>
<polygon fill="none" stroke="black" points="116,-108 0,-108 0,-72 122,-72 122,-102 116,-108"/>
<polyline fill="none" stroke="black" points="116,-108 116,-102"/>
<polyline fill="none" stroke="black" points="122,-102 116,-102"/>
<text text-anchor="middle" x="61" y="-86.3" font-family="Times New Roman,serif" font-size="14.00">var.public_to_port</text>
</g>
<!-- [root] aws_security_group.test&#45;allow&#45;web (expand)&#45;&gt;[root] var.public_to_port -->
<g id="edge19" class="edge">
<title>[root] aws_security_group.test&#45;allow&#45;web (expand)&#45;&gt;[root] var.public_to_port</title>
<path fill="none" stroke="black" d="M900.31,-144.95C897.17,-144.61 894.06,-144.29 891,-144 557.68,-111.97 467.47,-155.26 132.32,-108.02"/>
<polygon fill="black" stroke="black" points="132.72,-104.54 122.33,-106.6 131.74,-111.47 132.72,-104.54"/>
</g>
<!-- [root] var.ssh_ingress_from_port -->
<g id="node20" class="node">
<title>[root] var.ssh_ingress_from_port</title>
<polygon fill="none" stroke="black" points="302,-108 140,-108 140,-72 308,-72 308,-102 302,-108"/>
<polyline fill="none" stroke="black" points="302,-108 302,-102"/>
<polyline fill="none" stroke="black" points="308,-102 302,-102"/>
<text text-anchor="middle" x="224" y="-86.3" font-family="Times New Roman,serif" font-size="14.00">var.ssh_ingress_from_port</text>
</g>
<!-- [root] aws_security_group.test&#45;allow&#45;web (expand)&#45;&gt;[root] var.ssh_ingress_from_port -->
<g id="edge20" class="edge">
<title>[root] aws_security_group.test&#45;allow&#45;web (expand)&#45;&gt;[root] var.ssh_ingress_from_port</title>
<path fill="none" stroke="black" d="M900.3,-145.01C897.17,-144.66 894.06,-144.32 891,-144 640.11,-117.95 572.5,-138.48 318.37,-108.08"/>
<polygon fill="black" stroke="black" points="318.43,-104.56 308.08,-106.83 317.59,-111.51 318.43,-104.56"/>
</g>
<!-- [root] var.ssh_ingress_protocol -->
<g id="node21" class="node">
<title>[root] var.ssh_ingress_protocol</title>
<polygon fill="none" stroke="black" points="478,-108 326,-108 326,-72 484,-72 484,-102 478,-108"/>
<polyline fill="none" stroke="black" points="478,-108 478,-102"/>
<polyline fill="none" stroke="black" points="484,-102 478,-102"/>
<text text-anchor="middle" x="405" y="-86.3" font-family="Times New Roman,serif" font-size="14.00">var.ssh_ingress_protocol</text>
</g>
<!-- [root] aws_security_group.test&#45;allow&#45;web (expand)&#45;&gt;[root] var.ssh_ingress_protocol -->
<g id="edge21" class="edge">
<title>[root] aws_security_group.test&#45;allow&#45;web (expand)&#45;&gt;[root] var.ssh_ingress_protocol</title>
<path fill="none" stroke="black" d="M900.29,-145.13C897.16,-144.74 894.06,-144.36 891,-144 717.88,-123.61 670.6,-132.53 494.23,-108.09"/>
<polygon fill="black" stroke="black" points="494.48,-104.59 484.09,-106.67 493.51,-111.52 494.48,-104.59"/>
</g>
<!-- [root] var.ssh_ingress_to_port -->
<g id="node22" class="node">
<title>[root] var.ssh_ingress_to_port</title>
<polygon fill="none" stroke="black" points="648,-108 502,-108 502,-72 654,-72 654,-102 648,-108"/>
<polyline fill="none" stroke="black" points="648,-108 648,-102"/>
<polyline fill="none" stroke="black" points="654,-102 648,-102"/>
<text text-anchor="middle" x="578" y="-86.3" font-family="Times New Roman,serif" font-size="14.00">var.ssh_ingress_to_port</text>
</g>
<!-- [root] aws_security_group.test&#45;allow&#45;web (expand)&#45;&gt;[root] var.ssh_ingress_to_port -->
<g id="edge22" class="edge">
<title>[root] aws_security_group.test&#45;allow&#45;web (expand)&#45;&gt;[root] var.ssh_ingress_to_port</title>
<path fill="none" stroke="black" d="M900.45,-145.02C821.58,-133.2 720.1,-117.78 664.3,-108.18"/>
<polygon fill="black" stroke="black" points="664.88,-104.72 654.43,-106.45 663.67,-111.62 664.88,-104.72"/>
</g>
<!-- [root] aws_subnet.test&#45;subnets (expand)&#45;&gt;[root] aws_vpc.test&#45;vpc (expand) -->
<g id="edge23" class="edge">
<title>[root] aws_subnet.test&#45;subnets (expand)&#45;&gt;[root] aws_vpc.test&#45;vpc (expand)</title>
<path fill="none" stroke="black" d="M1538,-143.7C1538,-135.98 1538,-126.71 1538,-118.11"/>
<polygon fill="black" stroke="black" points="1541.5,-118.1 1538,-108.1 1534.5,-118.1 1541.5,-118.1"/>
</g>
<!-- [root] var.availability_zones -->
<g id="node11" class="node">
<title>[root] var.availability_zones</title>
<polygon fill="none" stroke="black" points="1743.5,-108 1614.5,-108 1614.5,-72 1749.5,-72 1749.5,-102 1743.5,-108"/>
<polyline fill="none" stroke="black" points="1743.5,-108 1743.5,-102"/>
<polyline fill="none" stroke="black" points="1749.5,-102 1743.5,-102"/>
<text text-anchor="middle" x="1682" y="-86.3" font-family="Times New Roman,serif" font-size="14.00">var.availability_zones</text>
</g>
<!-- [root] aws_subnet.test&#45;subnets (expand)&#45;&gt;[root] var.availability_zones -->
<g id="edge24" class="edge">
<title>[root] aws_subnet.test&#45;subnets (expand)&#45;&gt;[root] var.availability_zones</title>
<path fill="none" stroke="black" d="M1573.23,-143.88C1592.58,-134.47 1616.77,-122.71 1637.43,-112.67"/>
<polygon fill="black" stroke="black" points="1639.17,-115.71 1646.64,-108.19 1636.11,-109.41 1639.17,-115.71"/>
</g>
<!-- [root] var.subnet_cidrs -->
<g id="node23" class="node">
<title>[root] var.subnet_cidrs</title>
<polygon fill="none" stroke="black" points="1872,-108 1768,-108 1768,-72 1878,-72 1878,-102 1872,-108"/>
<polyline fill="none" stroke="black" points="1872,-108 1872,-102"/>
<polyline fill="none" stroke="black" points="1878,-102 1872,-102"/>
<text text-anchor="middle" x="1823" y="-86.3" font-family="Times New Roman,serif" font-size="14.00">var.subnet_cidrs</text>
</g>
<!-- [root] aws_subnet.test&#45;subnets (expand)&#45;&gt;[root] var.subnet_cidrs -->
<g id="edge25" class="edge">
<title>[root] aws_subnet.test&#45;subnets (expand)&#45;&gt;[root] var.subnet_cidrs</title>
<path fill="none" stroke="black" d="M1611.02,-143.96C1651.7,-134.35 1703.49,-121.95 1758.01,-108.22"/>
<polygon fill="black" stroke="black" points="1759.02,-111.58 1767.86,-105.74 1757.31,-104.79 1759.02,-111.58"/>
</g>
<!-- [root] provider[&quot;registry.terraform.io/hashicorp/aws&quot;] -->
<g id="node10" class="node">
<title>[root] provider[&quot;registry.terraform.io/hashicorp/aws&quot;]</title>
<polygon fill="none" stroke="black" points="1378,-36 1120.77,-18 1378,0 1635.23,-18 1378,-36"/>
<text text-anchor="middle" x="1378" y="-14.3" font-family="Times New Roman,serif" font-size="14.00">provider[&quot;registry.terraform.io/hashicorp/aws&quot;]</text>
</g>
<!-- [root] aws_vpc.test&#45;vpc (expand)&#45;&gt;[root] provider[&quot;registry.terraform.io/hashicorp/aws&quot;] -->
<g id="edge26" class="edge">
<title>[root] aws_vpc.test&#45;vpc (expand)&#45;&gt;[root] provider[&quot;registry.terraform.io/hashicorp/aws&quot;]</title>
<path fill="none" stroke="black" d="M1498.86,-71.88C1475.26,-61.55 1445.17,-48.38 1420.91,-37.77"/>
<polygon fill="black" stroke="black" points="1422.16,-34.5 1411.59,-33.7 1419.35,-40.91 1422.16,-34.5"/>
</g>
<!-- [root] var.vpc_cidr -->
<g id="node24" class="node">
<title>[root] var.vpc_cidr</title>
<polygon fill="none" stroke="black" points="1735,-36 1653,-36 1653,0 1741,0 1741,-30 1735,-36"/>
<polyline fill="none" stroke="black" points="1735,-36 1735,-30"/>
<polyline fill="none" stroke="black" points="1741,-30 1735,-30"/>
<text text-anchor="middle" x="1697" y="-14.3" font-family="Times New Roman,serif" font-size="14.00">var.vpc_cidr</text>
</g>
<!-- [root] aws_vpc.test&#45;vpc (expand)&#45;&gt;[root] var.vpc_cidr -->
<g id="edge27" class="edge">
<title>[root] aws_vpc.test&#45;vpc (expand)&#45;&gt;[root] var.vpc_cidr</title>
<path fill="none" stroke="black" d="M1576.9,-71.88C1598.63,-62.31 1625.9,-50.3 1648.96,-40.15"/>
<polygon fill="black" stroke="black" points="1650.49,-43.3 1658.23,-36.07 1647.67,-36.89 1650.49,-43.3"/>
</g>
<!-- [root] var.public_from_port -->
<g id="node17" class="node">
<title>[root] var.public_from_port</title>
<polygon fill="none" stroke="black" points="1652.5,-396 1521.5,-396 1521.5,-360 1658.5,-360 1658.5,-390 1652.5,-396"/>
<polyline fill="none" stroke="black" points="1652.5,-396 1652.5,-390"/>
<polyline fill="none" stroke="black" points="1658.5,-390 1652.5,-390"/>
<text text-anchor="middle" x="1590" y="-374.3" font-family="Times New Roman,serif" font-size="14.00">var.public_from_port</text>
</g>
<!-- [root] provider[&quot;registry.terraform.io/hashicorp/aws&quot;] (close) -->
<g id="node25" class="node">
<title>[root] provider[&quot;registry.terraform.io/hashicorp/aws&quot;] (close)</title>
<ellipse fill="none" stroke="black" cx="1271" cy="-378" rx="232.86" ry="18"/>
<text text-anchor="middle" x="1271" y="-374.3" font-family="Times New Roman,serif" font-size="14.00">[root] provider[&quot;registry.terraform.io/hashicorp/aws&quot;] (close)</text>
</g>
<!-- [root] provider[&quot;registry.terraform.io/hashicorp/aws&quot;] (close)&#45;&gt;[root] aws_eip.one (expand) -->
<g id="edge28" class="edge">
<title>[root] provider[&quot;registry.terraform.io/hashicorp/aws&quot;] (close)&#45;&gt;[root] aws_eip.one (expand)</title>
<path fill="none" stroke="black" d="M1245.58,-360.05C1231.88,-350.92 1214.8,-339.53 1199.97,-329.65"/>
<polygon fill="black" stroke="black" points="1201.81,-326.67 1191.55,-324.03 1197.93,-332.49 1201.81,-326.67"/>
</g>
<!-- [root] provider[&quot;registry.terraform.io/hashicorp/aws&quot;] (close)&#45;&gt;[root] aws_eip.two (expand) -->
<g id="edge29" class="edge">
<title>[root] provider[&quot;registry.terraform.io/hashicorp/aws&quot;] (close)&#45;&gt;[root] aws_eip.two (expand)</title>
<path fill="none" stroke="black" d="M1271,-359.7C1271,-351.98 1271,-342.71 1271,-334.11"/>
<polygon fill="black" stroke="black" points="1274.5,-334.1 1271,-324.1 1267.5,-334.1 1274.5,-334.1"/>
</g>
<!-- [root] provider[&quot;registry.terraform.io/hashicorp/aws&quot;] (close)&#45;&gt;[root] aws_route_table_association.test&#45;rt&#45;association (expand) -->
<g id="edge30" class="edge">
<title>[root] provider[&quot;registry.terraform.io/hashicorp/aws&quot;] (close)&#45;&gt;[root] aws_route_table_association.test&#45;rt&#45;association (expand)</title>
<path fill="none" stroke="black" d="M1319.13,-360.32C1347.66,-350.43 1384.04,-337.83 1414.26,-327.36"/>
<polygon fill="black" stroke="black" points="1415.54,-330.62 1423.84,-324.04 1413.24,-324 1415.54,-330.62"/>
</g>
<!-- [root] root -->
<g id="node26" class="node">
<title>[root] root</title>
<ellipse fill="none" stroke="black" cx="1430" cy="-450" rx="49.29" ry="18"/>
<text text-anchor="middle" x="1430" y="-446.3" font-family="Times New Roman,serif" font-size="14.00">[root] root</text>
</g>
<!-- [root] root&#45;&gt;[root] var.public_from_port -->
<g id="edge32" class="edge">
<title>[root] root&#45;&gt;[root] var.public_from_port</title>
<path fill="none" stroke="black" d="M1460.47,-435.67C1483.4,-425.64 1515.29,-411.69 1541.69,-400.14"/>
<polygon fill="black" stroke="black" points="1543.38,-403.22 1551.14,-396 1540.57,-396.8 1543.38,-403.22"/>
</g>
<!-- [root] root&#45;&gt;[root] provider[&quot;registry.terraform.io/hashicorp/aws&quot;] (close) -->
<g id="edge31" class="edge">
<title>[root] root&#45;&gt;[root] provider[&quot;registry.terraform.io/hashicorp/aws&quot;] (close)</title>
<path fill="none" stroke="black" d="M1399.72,-435.67C1376.85,-425.6 1345.02,-411.59 1318.73,-400.01"/>
<polygon fill="black" stroke="black" points="1319.89,-396.7 1309.33,-395.87 1317.07,-403.11 1319.89,-396.7"/>
</g>
</g>
</svg>
